<svg id="svg" version="1.1" xmlns="http://www.w3.org/2000/svg" xmlns:xlink="http://www.w3.org/1999/xlink" width="400" height="400" viewBox="0, 0, 400,400"><g id="svgg"><path id="path0" d="M50.940 40.246 C 45.743 41.277,41.391 45.031,39.634 50.000 C 39.071 51.595,39.012 65.171,39.001 196.289 L 38.988 340.820 39.820 343.028 C 41.375 347.154,44.115 349.889,48.485 351.679 L 50.586 352.539 198.047 352.651 C 296.611 352.726,346.515 352.631,348.546 352.365 C 354.069 351.641,358.203 348.685,360.477 343.835 L 361.523 341.602 361.523 196.289 L 361.523 50.977 360.315 48.438 C 358.229 44.058,354.453 41.115,349.831 40.268 C 347.057 39.760,53.500 39.739,50.940 40.246 M164.900 71.489 C 195.842 74.512,214.207 94.874,214.218 126.172 C 214.229 154.795,198.973 174.324,172.049 180.151 C 168.343 180.954,166.994 180.999,142.711 181.142 L 117.257 181.291 116.246 182.229 L 115.234 183.166 115.234 210.363 L 115.234 237.560 114.093 238.702 L 112.951 239.844 95.312 239.844 L 77.674 239.844 76.530 238.699 L 75.385 237.555 75.486 155.267 L 75.586 72.979 76.682 72.036 L 77.778 71.094 119.316 71.094 C 144.400 71.094,162.457 71.250,164.900 71.489 M285.908 75.016 C 312.443 77.739,331.744 102.513,328.098 129.171 C 326.305 142.275,311.253 169.052,286.855 202.539 C 280.564 211.173,280.532 211.212,280.179 210.728 C 280.016 210.505,278.088 207.919,275.895 204.981 C 259.260 182.698,242.981 156.840,236.928 143.086 C 221.345 107.678,247.670 71.092,285.908 75.016 M275.586 100.549 C 258.255 104.539,251.676 125.771,263.846 138.437 C 278.230 153.407,303.125 143.451,303.125 122.728 C 303.125 108.305,289.514 97.343,275.586 100.549 M116.193 104.474 L 115.234 105.433 115.234 126.758 L 115.234 148.082 116.193 149.041 L 117.152 150.000 137.663 150.000 L 158.173 150.000 161.131 149.061 C 180.041 143.056,183.192 116.628,166.211 106.454 C 161.278 103.498,161.443 103.516,138.027 103.516 L 117.152 103.516 116.193 104.474 M311.717 220.529 C 316.214 223.170,315.929 229.709,311.219 231.989 C 309.530 232.807,309.297 232.812,275.951 232.804 C 238.748 232.794,240.423 232.907,238.350 230.272 C 235.682 226.881,236.857 222.065,240.790 220.268 C 243.388 219.080,309.667 219.324,311.717 220.529 M100.817 269.769 C 101.374 270.440,101.386 276.488,100.832 277.053 C 100.673 277.215,98.091 277.416,95.095 277.500 L 89.648 277.651 89.547 296.984 C 89.430 319.277,89.968 317.133,84.570 316.825 L 80.664 316.602 80.563 297.211 L 80.462 277.820 79.196 277.604 C 78.499 277.484,75.915 277.371,73.452 277.352 C 70.398 277.328,68.879 277.166,68.673 276.842 C 68.177 276.062,68.304 270.133,68.828 269.609 C 69.639 268.799,100.138 268.951,100.817 269.769 M134.734 269.688 C 135.024 270.038,135.147 271.479,135.074 273.692 L 134.961 277.148 126.172 277.344 L 117.383 277.539 117.275 283.496 L 117.167 289.453 124.948 289.453 C 133.824 289.453,133.203 289.174,133.203 293.164 C 133.203 297.154,133.822 296.875,124.958 296.875 L 117.188 296.875 117.188 302.922 L 117.188 308.970 126.270 309.075 L 135.352 309.180 135.352 312.891 L 135.352 316.602 121.875 316.602 L 108.398 316.602 108.298 293.403 C 108.225 276.594,108.319 270.058,108.638 269.673 C 109.300 268.876,134.071 268.890,134.734 269.688 M153.414 269.460 C 153.787 269.697,153.922 274.266,154.000 289.279 L 154.102 308.789 162.695 308.984 L 171.289 309.180 171.403 312.660 C 171.465 314.574,171.364 316.293,171.177 316.480 C 170.803 316.853,145.892 316.960,145.294 316.590 C 144.705 316.226,144.800 270.200,145.391 269.609 C 145.920 269.080,152.620 268.956,153.414 269.460 M216.954 269.375 C 217.359 269.531,219.419 275.292,223.066 286.465 C 226.091 295.735,229.464 306.059,230.561 309.407 C 233.064 317.047,233.152 316.797,227.990 316.797 C 223.170 316.797,223.554 317.122,221.753 311.523 L 220.370 307.227 212.458 307.227 L 204.546 307.227 203.142 311.914 L 201.737 316.602 197.346 316.712 C 192.335 316.838,192.212 316.760,193.112 314.029 C 193.425 313.081,195.353 307.119,197.397 300.781 C 199.441 294.443,202.541 284.831,204.286 279.421 C 206.031 274.011,207.670 269.498,207.929 269.393 C 208.614 269.115,216.235 269.099,216.954 269.375 M239.977 270.020 C 240.275 270.503,242.781 279.063,245.544 289.042 L 250.570 307.185 251.425 304.276 C 251.896 302.676,254.252 294.336,256.661 285.742 C 261.676 267.851,260.983 269.075,266.010 269.225 C 271.060 269.376,271.560 265.867,262.043 297.070 C 260.536 302.012,258.628 308.294,257.803 311.030 C 256.978 313.766,256.193 316.183,256.058 316.401 C 255.684 317.007,245.506 316.921,245.023 316.309 C 244.565 315.727,230.853 271.176,230.857 270.280 C 230.861 269.237,231.245 269.141,235.408 269.141 C 239.163 269.141,239.472 269.200,239.977 270.020 M286.105 269.754 C 286.795 270.445,287.051 315.277,286.371 316.351 C 285.871 317.140,278.210 317.171,277.714 316.386 C 277.140 315.479,277.235 270.186,277.813 269.609 C 278.558 268.864,285.333 268.983,286.105 269.754 M301.901 269.491 C 302.396 269.805,312.500 305.109,312.500 306.525 C 312.500 307.860,312.963 306.333,317.973 288.477 C 323.813 267.666,323.051 269.141,327.957 269.141 C 333.035 269.141,332.958 268.374,329.127 280.890 C 327.324 286.781,324.229 296.963,322.249 303.516 C 320.270 310.068,318.491 315.737,318.296 316.113 C 317.985 316.713,317.296 316.797,312.695 316.797 C 306.606 316.797,307.289 317.301,305.551 311.523 C 304.904 309.375,301.807 299.200,298.667 288.913 C 294.272 274.508,293.062 270.085,293.403 269.674 C 293.910 269.064,300.986 268.911,301.901 269.491 M211.761 282.634 C 211.529 283.484,210.308 287.607,209.047 291.797 C 207.786 295.986,206.811 299.482,206.880 299.564 C 207.168 299.907,217.037 299.997,217.538 299.662 C 217.989 299.360,217.623 297.799,215.452 290.761 C 212.316 280.594,212.317 280.597,211.761 282.634 " stroke="none" fill="#1b7f87" fill-rule="evenodd"></path><path id="path1" d="M0.000 200.000 L 0.000 400.000 200.000 400.000 L 400.000 400.000 400.000 200.000 L 400.000 0.000 200.000 0.000 L 0.000 0.000 0.000 200.000 M353.210 41.086 C 357.811 43.242,360.877 47.322,361.697 52.379 C 362.215 55.573,362.258 336.167,361.741 339.743 C 360.992 344.920,358.142 348.943,353.613 351.216 L 350.977 352.539 200.391 352.539 L 49.805 352.539 47.571 351.492 C 44.452 350.030,41.658 347.287,40.133 344.190 L 38.867 341.618 38.867 196.297 L 38.867 50.977 39.906 48.760 C 41.747 44.834,45.325 41.664,49.330 40.409 C 50.683 39.986,77.693 39.907,200.977 39.966 L 350.977 40.039 353.210 41.086 M78.125 71.359 C 77.803 71.483,77.144 71.944,76.660 72.383 L 75.781 73.183 75.794 155.439 C 75.803 219.483,75.911 237.833,76.282 238.315 C 77.415 239.791,78.076 239.844,95.306 239.844 C 111.985 239.844,113.339 239.754,114.542 238.564 C 114.590 238.516,114.722 226.054,114.835 210.871 L 115.039 183.266 115.986 182.258 L 116.933 181.250 139.089 181.250 C 165.898 181.250,170.295 180.903,179.127 178.090 C 202.382 170.685,216.146 148.201,214.071 121.013 C 212.008 93.984,195.576 76.397,168.271 71.992 C 164.242 71.342,79.715 70.749,78.125 71.359 M272.603 75.419 C 250.068 78.729,233.737 97.191,232.545 120.703 C 231.928 132.885,235.340 142.119,248.773 164.621 C 256.661 177.835,279.265 210.547,280.507 210.547 C 281.060 210.547,294.315 192.119,301.455 181.421 C 311.266 166.725,321.356 148.823,325.002 139.645 C 338.563 105.505,309.585 69.987,272.603 75.419 M286.047 100.580 C 303.549 105.139,309.219 126.489,296.318 139.259 C 281.899 153.531,257.479 142.973,257.429 122.445 C 257.393 108.131,272.049 96.934,286.047 100.580 M159.977 103.717 C 181.258 109.126,183.825 138.784,163.831 148.243 C 159.576 150.255,158.058 150.376,137.018 150.384 L 117.590 150.391 116.315 149.251 L 115.039 148.111 115.039 126.758 L 115.039 105.405 116.315 104.265 L 117.590 103.125 137.619 103.125 C 154.226 103.125,158.046 103.226,159.977 103.717 M240.230 220.801 C 238.012 222.310,237.305 223.609,237.305 226.172 C 237.305 228.734,238.012 230.033,240.230 231.543 L 241.522 232.422 275.977 232.422 L 310.431 232.422 311.723 231.543 C 315.879 228.714,315.891 223.601,311.749 220.810 L 310.431 219.922 275.977 219.922 L 241.522 219.922 240.230 220.801 M68.918 270.048 C 68.807 270.337,68.768 272.053,68.831 273.861 L 68.945 277.148 74.805 277.344 L 80.664 277.539 80.765 296.680 C 80.821 307.207,80.949 316.046,81.051 316.322 C 81.189 316.697,82.254 316.796,85.247 316.713 L 89.258 316.602 89.359 296.973 L 89.460 277.344 94.878 277.344 C 101.408 277.344,101.247 277.456,101.091 272.987 L 100.977 269.727 85.048 269.625 C 71.996 269.541,69.083 269.617,68.918 270.048 M108.469 269.787 C 108.140 270.115,108.112 315.324,108.440 316.179 C 108.750 316.987,134.277 317.130,135.078 316.328 C 135.746 315.660,135.704 309.992,135.028 309.430 C 134.692 309.152,131.409 308.962,125.750 308.894 L 116.992 308.789 116.992 302.930 L 116.992 297.070 124.698 296.964 C 133.707 296.841,133.389 297.005,132.987 292.675 C 132.668 289.238,133.296 289.486,124.599 289.364 L 116.992 289.258 116.992 283.398 L 116.992 277.539 125.555 277.434 C 135.763 277.308,135.222 277.555,135.073 273.085 L 134.961 269.727 121.848 269.624 C 114.635 269.567,108.615 269.641,108.469 269.787 M145.473 269.978 C 144.963 270.803,145.033 316.012,145.545 316.437 C 145.812 316.659,151.069 316.766,158.640 316.705 L 171.289 316.602 171.403 313.341 C 171.565 308.726,172.106 308.984,162.260 308.984 L 153.913 308.984 153.812 289.355 L 153.711 269.727 149.738 269.616 C 146.943 269.537,145.679 269.645,145.473 269.978 M207.637 269.890 C 207.507 270.101,206.338 273.578,205.041 277.617 C 202.731 284.806,196.363 304.551,194.107 311.523 C 192.328 317.018,192.205 316.797,197.047 316.797 C 201.819 316.797,201.311 317.254,203.128 311.328 L 204.506 306.836 212.478 306.836 L 220.451 306.836 222.042 311.719 L 223.633 316.602 227.839 316.713 C 231.061 316.797,232.092 316.702,232.245 316.303 C 232.453 315.763,230.382 309.256,218.603 273.438 L 217.383 269.727 212.628 269.617 C 209.821 269.553,207.776 269.664,207.637 269.890 M231.067 270.757 C 231.215 271.431,232.380 275.343,233.656 279.449 C 234.933 283.555,237.905 293.242,240.261 300.977 C 242.617 308.711,244.713 315.435,244.920 315.918 C 245.367 316.964,254.962 317.310,255.764 316.309 C 255.980 316.040,257.601 311.074,259.367 305.273 C 261.133 299.473,263.514 291.650,264.658 287.891 C 268.963 273.743,269.941 270.268,269.716 269.905 C 269.589 269.699,267.744 269.531,265.616 269.531 C 261.237 269.531,261.412 269.412,260.435 273.050 C 259.970 274.778,253.927 296.258,251.329 305.413 C 250.575 308.069,250.691 308.263,248.660 300.941 C 244.761 286.886,241.329 274.647,240.593 272.168 L 239.811 269.531 235.304 269.531 L 230.797 269.531 231.067 270.757 M277.919 270.006 C 277.813 270.282,277.773 280.879,277.828 293.555 L 277.930 316.602 282.031 316.602 L 286.133 316.602 286.133 293.164 L 286.133 269.727 282.122 269.615 C 279.132 269.532,278.062 269.632,277.919 270.006 M293.359 270.257 C 293.359 270.670,294.834 275.818,296.635 281.696 C 298.437 287.574,301.349 297.129,303.106 302.930 C 307.853 318.599,306.595 316.847,313.006 316.710 L 318.085 316.602 321.165 306.445 C 327.559 285.367,330.565 275.513,331.287 273.275 C 332.535 269.402,332.650 269.531,327.943 269.531 C 324.450 269.531,323.803 269.631,323.491 270.215 C 323.027 271.085,313.281 305.674,313.281 306.451 C 313.281 306.770,313.105 307.031,312.891 307.031 C 312.676 307.031,312.500 306.932,312.500 306.810 C 312.500 306.549,306.111 283.557,303.770 275.391 L 302.145 269.727 297.752 269.616 C 293.640 269.513,293.359 269.554,293.359 270.257 M215.561 290.400 C 217.079 295.326,218.231 299.501,218.122 299.678 C 218.012 299.855,215.365 300.000,212.239 300.000 L 206.556 300.000 206.812 298.926 C 207.120 297.633,210.733 285.344,211.589 282.680 C 212.401 280.148,212.403 280.150,215.561 290.400 " stroke="none" fill="#e1dfdc" fill-rule="evenodd"></path><path id="path2" d="M279.785 74.879 C 280.161 74.977,280.776 74.977,281.152 74.879 C 281.528 74.780,281.221 74.700,280.469 74.700 C 279.717 74.700,279.409 74.780,279.785 74.879 M303.237 122.852 C 303.240 123.926,303.316 124.319,303.405 123.725 C 303.495 123.131,303.493 122.252,303.400 121.772 C 303.307 121.292,303.234 121.777,303.237 122.852 M129.204 150.276 C 129.690 150.370,130.393 150.366,130.766 150.268 C 131.140 150.171,130.742 150.094,129.883 150.099 C 129.023 150.103,128.718 150.183,129.204 150.276 M141.704 150.276 C 142.190 150.370,142.893 150.366,143.266 150.268 C 143.640 150.171,143.242 150.094,142.383 150.099 C 141.523 150.103,141.218 150.183,141.704 150.276 M247.559 219.807 C 248.042 219.900,248.833 219.900,249.316 219.807 C 249.800 219.714,249.404 219.638,248.438 219.638 C 247.471 219.638,247.075 219.714,247.559 219.807 M257.324 219.821 C 258.882 219.895,261.431 219.895,262.988 219.821 C 264.546 219.747,263.271 219.686,260.156 219.686 C 257.041 219.686,255.767 219.747,257.324 219.821 M266.900 219.812 C 267.494 219.901,268.373 219.899,268.853 219.806 C 269.333 219.714,268.848 219.640,267.773 219.643 C 266.699 219.646,266.306 219.722,266.900 219.812 M272.754 219.811 C 273.345 219.901,274.312 219.901,274.902 219.811 C 275.493 219.722,275.010 219.648,273.828 219.648 C 272.646 219.648,272.163 219.722,272.754 219.811 M279.395 219.822 C 281.060 219.895,283.784 219.895,285.449 219.822 C 287.114 219.748,285.752 219.688,282.422 219.688 C 279.092 219.688,277.729 219.748,279.395 219.822 M291.699 219.822 C 293.472 219.894,296.372 219.894,298.145 219.822 C 299.917 219.749,298.467 219.690,294.922 219.690 C 291.377 219.690,289.927 219.749,291.699 219.822 M306.543 219.807 C 307.026 219.900,307.817 219.900,308.301 219.807 C 308.784 219.714,308.389 219.638,307.422 219.638 C 306.455 219.638,306.060 219.714,306.543 219.807 M244.824 232.711 C 246.167 232.787,248.364 232.787,249.707 232.711 C 251.050 232.635,249.951 232.572,247.266 232.572 C 244.580 232.572,243.481 232.635,244.824 232.711 M266.504 232.715 C 274.399 232.774,287.319 232.774,295.215 232.715 C 303.110 232.656,296.650 232.607,280.859 232.607 C 265.068 232.607,258.608 232.656,266.504 232.715 M77.051 269.433 C 81.294 269.496,88.237 269.496,92.480 269.433 C 96.724 269.370,93.252 269.318,84.766 269.318 C 76.279 269.318,72.808 269.370,77.051 269.433 M115.552 269.433 C 119.057 269.498,124.682 269.498,128.052 269.433 C 131.422 269.368,128.555 269.315,121.680 269.315 C 114.805 269.315,112.047 269.368,115.552 269.433 M147.754 269.428 C 148.774 269.508,150.444 269.508,151.465 269.428 C 152.485 269.347,151.650 269.281,149.609 269.281 C 147.568 269.281,146.733 269.347,147.754 269.428 M210.254 269.429 C 211.489 269.507,213.511 269.507,214.746 269.429 C 215.981 269.352,214.971 269.288,212.500 269.288 C 210.029 269.288,209.019 269.352,210.254 269.429 M233.509 269.429 C 234.644 269.508,236.402 269.507,237.415 269.427 C 238.429 269.347,237.500 269.282,235.352 269.283 C 233.203 269.284,232.374 269.350,233.509 269.429 M264.172 269.428 C 265.199 269.509,266.781 269.508,267.688 269.426 C 268.594 269.344,267.754 269.278,265.820 269.279 C 263.887 269.280,263.145 269.347,264.172 269.428 M280.188 269.428 C 281.215 269.509,282.797 269.508,283.703 269.426 C 284.610 269.344,283.770 269.278,281.836 269.279 C 279.902 269.280,279.161 269.347,280.188 269.428 M295.801 269.428 C 296.821 269.508,298.491 269.508,299.512 269.428 C 300.532 269.347,299.697 269.281,297.656 269.281 C 295.615 269.281,294.780 269.347,295.801 269.428 M326.087 269.429 C 327.222 269.508,328.980 269.507,329.994 269.427 C 331.007 269.347,330.078 269.282,327.930 269.283 C 325.781 269.284,324.952 269.350,326.087 269.429 M277.527 293.164 C 277.527 305.840,277.576 310.969,277.637 304.562 C 277.697 298.155,277.697 287.784,277.636 281.515 C 277.576 275.246,277.527 280.488,277.527 293.164 " stroke="none" fill="#86b0b2" fill-rule="evenodd"></path><path id="path3" d="M361.912 196.094 C 361.912 274.404,361.957 306.440,362.012 267.285 C 362.067 228.130,362.067 164.058,362.012 124.902 C 361.957 85.747,361.912 117.783,361.912 196.094 M75.582 155.664 C 75.582 200.352,75.628 218.575,75.684 196.160 C 75.739 173.746,75.739 137.183,75.684 114.910 C 75.628 92.637,75.582 110.977,75.582 155.664 M115.026 126.758 C 115.026 138.145,115.076 142.746,115.136 136.984 C 115.197 131.222,115.197 121.906,115.136 116.281 C 115.075 110.657,115.026 115.371,115.026 126.758 M169.531 108.716 C 169.531 108.783,170.103 109.354,170.801 109.986 L 172.070 111.133 170.923 109.863 C 169.854 108.680,169.531 108.414,169.531 108.716 M214.153 129.297 C 214.153 130.049,214.234 130.356,214.332 129.980 C 214.430 129.604,214.430 128.989,214.332 128.613 C 214.234 128.237,214.153 128.545,214.153 129.297 M115.028 210.547 C 115.028 225.264,115.077 231.284,115.137 223.926 C 115.196 216.567,115.196 204.526,115.137 197.168 C 115.077 189.810,115.028 195.830,115.028 210.547 M68.496 273.438 C 68.496 275.264,68.563 276.011,68.645 275.098 C 68.728 274.185,68.728 272.690,68.645 271.777 C 68.563 270.864,68.496 271.611,68.496 273.438 M145.028 271.875 C 145.028 272.842,145.104 273.237,145.198 272.754 C 145.291 272.271,145.291 271.479,145.198 270.996 C 145.104 270.513,145.028 270.908,145.028 271.875 M145.020 275.195 C 145.025 276.055,145.105 276.360,145.198 275.874 C 145.292 275.388,145.288 274.685,145.190 274.312 C 145.092 273.938,145.016 274.336,145.020 275.195 M116.953 283.398 C 116.954 286.621,117.014 287.887,117.088 286.213 C 117.161 284.538,117.161 281.901,117.087 280.353 C 117.013 278.805,116.953 280.176,116.953 283.398 M80.650 297.266 C 80.650 307.686,80.700 311.948,80.761 306.738 C 80.823 301.528,80.823 293.003,80.761 287.793 C 80.700 282.583,80.650 286.846,80.650 297.266 M145.013 281.250 C 145.013 282.002,145.093 282.310,145.191 281.934 C 145.289 281.558,145.289 280.942,145.191 280.566 C 145.093 280.190,145.013 280.498,145.013 281.250 M132.903 291.406 C 132.903 292.158,132.984 292.466,133.082 292.090 C 133.180 291.714,133.180 291.099,133.082 290.723 C 132.984 290.347,132.903 290.654,132.903 291.406 M145.013 296.875 C 145.013 297.627,145.093 297.935,145.191 297.559 C 145.289 297.183,145.289 296.567,145.191 296.191 C 145.093 295.815,145.013 296.123,145.013 296.875 M116.895 298.633 C 116.900 299.492,116.980 299.798,117.073 299.312 C 117.167 298.826,117.163 298.123,117.065 297.749 C 116.967 297.376,116.891 297.773,116.895 298.633 M116.938 305.078 C 116.938 307.119,117.004 307.954,117.084 306.934 C 117.164 305.913,117.164 304.243,117.084 303.223 C 117.004 302.202,116.938 303.037,116.938 305.078 M207.813 306.909 C 213.995 307.189,220.615 307.202,220.448 306.934 C 220.348 306.772,216.893 306.675,212.770 306.717 C 208.647 306.759,206.416 306.845,207.813 306.909 M145.013 312.500 C 145.013 313.252,145.093 313.560,145.191 313.184 C 145.289 312.808,145.289 312.192,145.191 311.816 C 145.093 311.440,145.013 311.748,145.013 312.500 " stroke="none" fill="#b1d9db" fill-rule="evenodd"></path><path id="path4" d="M38.778 61.719 C 38.778 62.686,38.854 63.081,38.948 62.598 C 39.041 62.114,39.041 61.323,38.948 60.840 C 38.854 60.356,38.778 60.752,38.778 61.719 M38.789 67.188 C 38.789 68.369,38.862 68.853,38.952 68.262 C 39.041 67.671,39.041 66.704,38.952 66.113 C 38.862 65.522,38.789 66.006,38.789 67.188 M38.778 71.875 C 38.778 72.842,38.854 73.237,38.948 72.754 C 39.041 72.271,39.041 71.479,38.948 70.996 C 38.854 70.513,38.778 70.908,38.778 71.875 M38.825 78.906 C 38.825 81.807,38.886 82.993,38.962 81.543 C 39.037 80.093,39.037 77.720,38.962 76.270 C 38.886 74.819,38.825 76.006,38.825 78.906 M199.414 86.719 C 200.253 87.578,201.028 88.281,201.135 88.281 C 201.243 88.281,200.644 87.578,199.805 86.719 C 198.966 85.859,198.191 85.156,198.084 85.156 C 197.976 85.156,198.575 85.859,199.414 86.719 M38.835 93.359 C 38.835 97.549,38.893 99.263,38.963 97.168 C 39.033 95.073,39.033 91.646,38.963 89.551 C 38.893 87.456,38.835 89.170,38.835 93.359 M38.820 105.469 C 38.820 107.939,38.883 108.950,38.961 107.715 C 39.038 106.479,39.038 104.458,38.961 103.223 C 38.883 101.987,38.820 102.998,38.820 105.469 M127.637 103.418 C 133.062 103.479,141.938 103.479,147.363 103.418 C 152.788 103.356,148.350 103.306,137.500 103.306 C 126.650 103.306,122.212 103.356,127.637 103.418 M38.815 113.867 C 38.816 116.016,38.881 116.845,38.960 115.710 C 39.039 114.574,39.039 112.817,38.958 111.803 C 38.878 110.790,38.814 111.719,38.815 113.867 M38.806 123.242 C 38.807 124.961,38.876 125.615,38.958 124.697 C 39.041 123.778,39.040 122.372,38.956 121.572 C 38.872 120.772,38.804 121.523,38.806 123.242 M38.770 127.930 C 38.775 128.789,38.855 129.095,38.948 128.609 C 39.042 128.123,39.038 127.420,38.940 127.046 C 38.842 126.673,38.766 127.070,38.770 127.930 M38.831 135.938 C 38.831 139.482,38.890 140.933,38.962 139.160 C 39.035 137.388,39.035 134.487,38.962 132.715 C 38.890 130.942,38.831 132.393,38.831 135.938 M38.826 149.414 C 38.827 152.422,38.888 153.601,38.962 152.034 C 39.037 150.467,39.036 148.006,38.961 146.565 C 38.886 145.124,38.825 146.406,38.826 149.414 M120.610 150.276 C 121.096 150.370,121.799 150.366,122.173 150.268 C 122.546 150.171,122.148 150.094,121.289 150.099 C 120.430 150.103,120.124 150.183,120.610 150.276 M132.134 150.280 C 132.728 150.370,133.607 150.368,134.087 150.275 C 134.568 150.182,134.082 150.109,133.008 150.112 C 131.934 150.115,131.541 150.191,132.134 150.280 M136.222 150.282 C 136.915 150.368,138.146 150.370,138.956 150.285 C 139.767 150.201,139.199 150.130,137.695 150.128 C 136.191 150.126,135.528 150.196,136.222 150.282 M144.438 150.276 C 144.924 150.370,145.627 150.366,146.001 150.268 C 146.374 150.171,145.977 150.094,145.117 150.099 C 144.258 150.103,143.952 150.183,144.438 150.276 M38.770 159.570 C 38.775 160.430,38.855 160.735,38.948 160.249 C 39.042 159.763,39.038 159.060,38.940 158.687 C 38.842 158.313,38.766 158.711,38.770 159.570 M38.778 162.891 C 38.778 163.857,38.854 164.253,38.948 163.770 C 39.041 163.286,39.041 162.495,38.948 162.012 C 38.854 161.528,38.778 161.924,38.778 162.891 M38.763 166.016 C 38.763 166.768,38.843 167.075,38.941 166.699 C 39.039 166.323,39.039 165.708,38.941 165.332 C 38.843 164.956,38.763 165.264,38.763 166.016 M38.784 169.336 C 38.787 170.410,38.862 170.803,38.952 170.209 C 39.042 169.616,39.040 168.737,38.947 168.256 C 38.854 167.776,38.781 168.262,38.784 169.336 M38.835 178.906 C 38.835 183.096,38.893 184.810,38.963 182.715 C 39.033 180.620,39.033 177.192,38.963 175.098 C 38.893 173.003,38.835 174.717,38.835 178.906 M38.825 203.516 C 38.825 206.416,38.886 207.603,38.962 206.152 C 39.037 204.702,39.037 202.329,38.962 200.879 C 38.886 199.429,38.825 200.615,38.825 203.516 M38.793 211.914 C 38.795 213.203,38.868 213.683,38.955 212.981 C 39.042 212.279,39.040 211.225,38.951 210.638 C 38.862 210.051,38.791 210.625,38.793 211.914 M38.842 224.219 C 38.842 229.697,38.897 231.938,38.964 229.199 C 39.031 226.460,39.031 221.978,38.964 219.238 C 38.897 216.499,38.842 218.740,38.842 224.219 M250.488 219.801 C 250.864 219.899,251.479 219.899,251.855 219.801 C 252.231 219.702,251.924 219.622,251.172 219.622 C 250.420 219.622,250.112 219.702,250.488 219.801 M38.789 236.328 C 38.789 237.510,38.862 237.993,38.952 237.402 C 39.041 236.812,39.041 235.845,38.952 235.254 C 38.862 234.663,38.789 235.146,38.789 236.328 M38.797 244.922 C 38.797 246.318,38.868 246.890,38.954 246.191 C 39.041 245.493,39.041 244.351,38.954 243.652 C 38.868 242.954,38.797 243.525,38.797 244.922 M38.816 252.344 C 38.816 254.600,38.881 255.522,38.960 254.395 C 39.039 253.267,39.039 251.421,38.960 250.293 C 38.881 249.165,38.816 250.088,38.816 252.344 M38.793 261.523 C 38.795 262.813,38.868 263.293,38.955 262.591 C 39.042 261.889,39.040 260.834,38.951 260.247 C 38.862 259.660,38.791 260.234,38.793 261.523 M286.456 274.414 C 286.458 275.918,286.529 276.485,286.613 275.675 C 286.698 274.864,286.696 273.634,286.610 272.941 C 286.524 272.247,286.455 272.910,286.456 274.414 M38.778 278.906 C 38.778 279.873,38.854 280.269,38.948 279.785 C 39.041 279.302,39.041 278.511,38.948 278.027 C 38.854 277.544,38.778 277.939,38.778 278.906 M91.704 277.620 C 92.190 277.713,92.893 277.710,93.266 277.612 C 93.640 277.514,93.242 277.438,92.383 277.442 C 91.523 277.447,91.218 277.527,91.704 277.620 M286.473 281.250 C 286.473 283.506,286.537 284.429,286.616 283.301 C 286.695 282.173,286.695 280.327,286.616 279.199 C 286.537 278.071,286.473 278.994,286.473 281.250 M38.770 282.227 C 38.775 283.086,38.855 283.392,38.948 282.906 C 39.042 282.420,39.038 281.717,38.940 281.343 C 38.842 280.970,38.766 281.367,38.770 282.227 M38.778 285.547 C 38.778 286.514,38.854 286.909,38.948 286.426 C 39.041 285.942,39.041 285.151,38.948 284.668 C 38.854 284.185,38.778 284.580,38.778 285.547 M38.816 291.406 C 38.816 293.662,38.881 294.585,38.960 293.457 C 39.039 292.329,39.039 290.483,38.960 289.355 C 38.881 288.228,38.816 289.150,38.816 291.406 M286.440 289.258 C 286.443 290.332,286.519 290.725,286.608 290.131 C 286.698 289.538,286.696 288.659,286.603 288.178 C 286.510 287.698,286.437 288.184,286.440 289.258 M38.763 297.266 C 38.763 298.018,38.843 298.325,38.941 297.949 C 39.039 297.573,39.039 296.958,38.941 296.582 C 38.843 296.206,38.763 296.514,38.763 297.266 M286.419 298.047 C 286.419 298.799,286.499 299.106,286.597 298.730 C 286.696 298.354,286.696 297.739,286.597 297.363 C 286.499 296.987,286.419 297.295,286.419 298.047 M38.763 300.000 C 38.763 300.752,38.843 301.060,38.941 300.684 C 39.039 300.308,39.039 299.692,38.941 299.316 C 38.843 298.940,38.763 299.248,38.763 300.000 M208.691 299.879 C 209.067 299.977,209.683 299.977,210.059 299.879 C 210.435 299.780,210.127 299.700,209.375 299.700 C 208.623 299.700,208.315 299.780,208.691 299.879 M38.793 303.711 C 38.795 305.000,38.868 305.480,38.955 304.778 C 39.042 304.076,39.040 303.021,38.951 302.434 C 38.862 301.847,38.791 302.422,38.793 303.711 M286.483 307.422 C 286.483 310.537,286.544 311.812,286.618 310.254 C 286.692 308.696,286.692 306.147,286.618 304.590 C 286.544 303.032,286.483 304.307,286.483 307.422 M38.763 307.422 C 38.763 308.174,38.843 308.481,38.941 308.105 C 39.039 307.729,39.039 307.114,38.941 306.738 C 38.843 306.362,38.763 306.670,38.763 307.422 M38.793 311.523 C 38.795 312.813,38.868 313.293,38.955 312.591 C 39.042 311.889,39.040 310.834,38.951 310.247 C 38.862 309.660,38.791 310.234,38.793 311.523 M286.427 314.648 C 286.431 315.508,286.511 315.813,286.604 315.327 C 286.698 314.842,286.694 314.138,286.597 313.765 C 286.499 313.392,286.422 313.789,286.427 314.648 M38.778 319.922 C 38.778 320.889,38.854 321.284,38.948 320.801 C 39.041 320.317,39.041 319.526,38.948 319.043 C 38.854 318.560,38.778 318.955,38.778 319.922 M38.815 325.586 C 38.816 327.734,38.881 328.563,38.960 327.428 C 39.039 326.293,39.039 324.535,38.958 323.522 C 38.878 322.509,38.814 323.438,38.815 325.586 M38.808 332.813 C 38.808 334.639,38.876 335.386,38.958 334.473 C 39.040 333.560,39.040 332.065,38.958 331.152 C 38.876 330.239,38.808 330.986,38.808 332.813 M38.778 337.891 C 38.778 338.857,38.854 339.253,38.948 338.770 C 39.041 338.286,39.041 337.495,38.948 337.012 C 38.854 336.528,38.778 336.924,38.778 337.891 " stroke="none" fill="#5ea4a8" fill-rule="evenodd"></path></g></svg>